<svg version="1.1" id="Layer_1" xmlns="http://www.w3.org/2000/svg" xmlns:xlink="http://www.w3.org/1999/xlink" x="0px" y="0px"
	 width="100%" viewBox="0 0 500 500" enable-background="new 0 0 500 500" xml:space="preserve">
<path fill="#000000" opacity="1.000000" stroke="none" 
	d="
M227.000000,501.000000 
	C151.333359,501.000000 76.166702,501.000000 1.000040,501.000000 
	C1.000027,334.333405 1.000027,167.666779 1.000013,1.000130 
	C167.666565,1.000087 334.333130,1.000087 500.999756,1.000043 
	C500.999847,167.666534 500.999847,334.333069 500.999939,500.999817 
	C409.833344,501.000000 318.666656,501.000000 227.000000,501.000000 
M186.792603,259.100708 
	C185.787521,260.072388 184.186462,260.885193 183.877960,262.042572 
	C182.338181,267.819061 181.161682,273.691620 179.802246,279.517517 
	C179.437286,281.081482 178.878830,282.600281 178.409210,284.139832 
	C178.089615,284.041870 177.770035,283.943909 177.450439,283.845947 
	C175.494476,275.666382 173.538498,267.486816 171.613266,259.435791 
	C168.928421,259.435791 166.690277,259.435791 164.271118,259.435791 
	C163.499252,273.136627 162.745743,286.511505 161.976593,300.163910 
	C164.063995,299.978058 165.495743,299.850586 166.938385,299.722137 
	C167.458008,289.781342 167.960083,280.176300 168.462158,270.571259 
	C168.829987,270.567932 169.197830,270.564606 169.565659,270.561310 
	C171.496155,277.896881 173.426666,285.232483 175.365585,292.600098 
	C177.258087,292.600098 178.854935,292.600098 180.579834,292.600098 
	C182.528595,284.698181 184.426941,277.000732 186.325287,269.303284 
	C186.603195,269.355591 186.881119,269.407867 187.159042,269.460175 
	C187.752609,279.546204 188.346176,289.632263 188.958282,300.033325 
	C190.849945,299.932556 192.367767,299.851685 193.878448,299.771210 
	C193.675659,298.284943 193.533005,297.239410 193.306351,295.578186 
	C200.994705,302.164642 204.661194,302.360596 213.033066,297.430603 
	C214.942474,298.677643 216.665131,299.802704 219.146454,301.423248 
	C219.426880,299.407959 219.883179,298.185669 219.693436,297.073608 
	C219.269821,294.590637 218.195084,292.190216 217.987076,289.705811 
	C217.682388,286.066711 217.996506,282.380585 217.881668,278.719727 
	C217.681702,272.344879 214.489655,268.595551 208.170471,268.284698 
	C204.157364,268.087280 200.087708,269.039398 195.441360,269.541016 
	C196.466049,271.661316 196.999634,272.765411 197.501724,273.804352 
	C209.262817,270.794678 213.302917,272.774231 212.356781,279.709839 
	C205.767410,281.519531 199.579163,283.219025 193.211060,284.967957 
	C192.828476,278.221100 192.191513,270.649078 192.063293,263.068451 
	C192.005600,259.656555 190.772522,258.605011 186.792603,259.100708 
M424.141998,229.310715 
	C426.821747,232.416748 429.501495,235.522797 432.187347,238.635895 
	C421.467438,244.973236 419.162476,255.394577 419.354889,266.874847 
	C419.496826,275.345184 420.276520,283.823883 420.019684,292.276001 
	C419.808411,299.229370 415.678101,302.664429 408.702484,302.920593 
	C405.878723,303.024261 403.043549,302.773071 400.214600,302.798187 
	C398.524078,302.813171 396.835571,303.050751 395.146149,303.188263 
	C395.000458,303.759827 394.854767,304.331390 394.709076,304.902985 
	C396.094208,305.580688 397.426697,306.657806 398.876007,306.848938 
	C401.498901,307.194855 404.191437,307.030884 406.855103,307.047150 
	C418.908997,307.120605 423.623199,302.640656 423.553070,290.628326 
	C423.508392,282.982178 422.772583,275.341644 422.655701,267.693878 
	C422.544708,260.434204 423.727875,253.424850 428.462646,247.504105 
	C432.453949,242.513046 437.850220,240.509018 444.564270,239.877487 
	C443.514679,238.165543 442.250275,236.576141 440.808746,236.394791 
	C431.578278,235.233521 425.770660,231.137924 424.270782,221.888885 
	C422.958466,213.796478 423.576569,205.389618 423.361542,197.121185 
	C423.228302,191.996902 423.628357,186.799210 422.893768,181.765106 
	C421.961212,175.374023 417.854187,171.150009 411.302887,170.477905 
	C406.141998,169.948456 400.883423,170.371536 395.668213,170.371536 
	C395.457428,170.911591 395.246643,171.451645 395.035858,171.991699 
	C396.406769,172.739075 397.729584,173.994446 399.158478,174.129791 
	C402.289581,174.426361 405.474426,174.119095 408.637299,174.122986 
	C416.843628,174.133102 420.347076,177.361542 420.335236,185.499268 
	C420.325348,192.313843 419.839752,199.128677 419.525665,205.941605 
	C419.160858,213.855225 419.893890,221.549820 424.141998,229.310715 
M81.263519,302.156250 
	C87.835533,309.890198 96.747246,306.191711 104.743004,306.798340 
	C105.467216,306.853241 106.339882,304.951569 107.960175,302.949585 
	C102.570717,302.949585 98.630592,302.978973 94.691048,302.943573 
	C86.059013,302.865967 82.046799,299.293335 81.727470,290.681396 
	C81.518478,285.044922 81.880287,279.367615 82.296410,273.731476 
	C83.312851,259.964722 82.967903,246.744156 69.346733,238.144745 
	C77.829437,232.118240 81.868210,224.096588 82.115234,214.478134 
	C82.362350,204.856277 81.660378,195.213989 81.653404,185.580460 
	C81.647484,177.389267 85.093613,174.158127 93.272255,174.125931 
	C96.602455,174.112823 99.957756,174.437561 103.251091,174.106186 
	C104.546478,173.975830 105.703728,172.472672 106.923882,171.594666 
	C106.645737,171.099274 106.367592,170.603882 106.089455,170.108490 
	C101.640572,170.108490 97.183006,169.930908 92.744751,170.148071 
	C85.161774,170.519104 80.221985,174.748856 78.955521,182.157166 
	C78.345009,185.728470 78.263695,189.431183 78.329277,193.067429 
	C78.425217,198.386169 78.947128,203.695740 79.144936,209.014511 
	C79.413681,216.241028 78.840630,223.337509 74.449196,229.479889 
	C70.867523,234.489639 65.838203,236.473892 59.747208,236.399338 
	C59.007782,236.390305 58.246002,238.208405 57.494583,239.179688 
	C58.326244,239.753723 59.100323,240.708145 59.998302,240.844086 
	C71.303421,242.555573 78.027443,249.271576 78.839561,261.078064 
	C79.362076,268.674286 78.334785,276.367218 78.636444,283.991730 
	C78.868332,289.852875 80.089653,295.674927 81.263519,302.156250 
M195.267487,227.827225 
	C195.668365,232.891037 198.548553,229.374924 200.852295,229.791580 
	C200.852295,225.108368 200.852295,220.895264 200.852295,216.542084 
	C210.597336,220.533020 217.411560,218.640671 219.230530,210.501755 
	C220.478989,204.915619 220.085403,198.658752 219.044281,192.953812 
	C218.086716,187.706848 212.956757,185.093796 207.852432,186.257278 
	C205.202576,186.861282 202.789551,188.504120 201.331131,189.183289 
	C199.255295,188.136169 197.597321,187.299820 195.266968,186.124313 
	C195.266968,200.663010 195.266968,213.809738 195.267487,227.827225 
M163.203705,203.628235 
	C163.149811,199.172623 163.531418,194.657898 162.936737,190.275665 
	C162.109955,184.183075 158.469482,179.645950 152.408768,178.320114 
	C147.179489,177.176178 141.686890,177.236023 136.217407,176.755493 
	C136.217407,191.042953 136.217407,204.417984 136.217407,217.769958 
	C154.060760,218.938644 159.843552,216.034637 163.203705,203.628235 
M266.026672,268.234222 
	C260.853882,267.551453 256.653351,269.356079 254.267319,273.931641 
	C250.672241,280.825714 250.691422,288.090729 254.015533,295.070618 
	C256.544739,300.381470 262.713470,302.233124 268.105743,299.765656 
	C269.409790,299.168976 270.604706,298.333862 270.713318,298.270569 
	C273.431824,299.173706 275.128143,299.737244 277.029846,300.368988 
	C277.029846,285.094513 277.029846,270.692139 277.029846,256.099670 
	C275.299255,256.099670 273.882751,256.099670 272.110321,256.099670 
	C272.110321,261.054871 272.110321,265.791138 272.110321,270.732910 
	C270.089722,269.854919 268.449860,269.142365 266.026672,268.234222 
M303.580902,299.813599 
	C304.721191,299.740845 305.861481,299.668060 307.001770,299.595306 
	C306.809906,298.472015 306.656250,297.340546 306.417053,296.227417 
	C306.076599,294.642914 305.407928,293.081818 305.348541,291.493195 
	C305.193115,287.334442 305.373077,283.164246 305.271637,279.002197 
	C305.097473,271.855194 301.665100,268.236542 294.457855,268.182465 
	C290.901489,268.155731 287.338135,269.064667 283.885040,269.535583 
	C283.501770,274.579346 286.102325,273.433228 288.554474,272.980103 
	C297.458649,271.334747 300.322327,273.332794 299.795258,280.488617 
	C295.674713,281.074188 291.494537,281.290253 287.535309,282.339813 
	C283.760132,283.340576 280.707672,286.188629 281.230560,290.260376 
	C281.631348,293.380890 283.136627,297.138702 285.444092,299.058075 
	C289.184082,302.168945 294.147766,301.521698 298.036163,298.767426 
	C300.412598,297.084137 301.560883,297.556702 303.580902,299.813599 
M231.400681,199.622406 
	C226.876785,200.642090 223.245148,202.656036 222.651520,207.822678 
	C222.200256,211.750534 223.218033,215.231567 226.837616,217.237320 
	C232.323868,220.277420 237.397903,218.830170 241.872208,215.276154 
	C243.822556,216.549698 245.634094,217.732590 247.782455,219.135452 
	C248.359955,217.586899 249.250443,216.296616 248.940811,215.862671 
	C245.069351,210.437057 247.271942,204.334824 247.009949,198.583328 
	C246.587463,189.308746 242.449722,185.257339 233.085526,186.192108 
	C230.358246,186.464355 227.691986,187.347824 224.739456,188.008972 
	C225.397141,189.622375 225.816330,190.650742 226.218964,191.638489 
	C238.779785,189.104568 242.410416,190.877396 241.143494,198.810287 
	C238.175491,199.004013 235.198792,199.198303 231.400681,199.622406 
M335.964935,202.532867 
	C335.962067,200.202164 336.020355,197.869507 335.945160,195.541138 
	C335.698212,187.893509 330.769440,184.373489 323.508453,186.781601 
	C321.409088,187.477875 319.481323,188.691483 317.028381,189.885193 
	C317.028381,184.333740 317.028381,179.243011 317.028381,173.883591 
	C315.256683,174.064865 313.852875,174.208496 312.387390,174.358429 
	C312.387390,189.072769 312.387390,203.456619 312.387390,218.067657 
	C314.125122,217.967545 315.537415,217.886185 317.173157,217.791946 
	C317.173157,210.809662 317.093689,204.171051 317.204010,197.535629 
	C317.266693,193.765244 321.695984,190.004944 325.736877,190.155167 
	C330.251495,190.322983 330.957306,193.371201 330.918365,197.080002 
	C330.850189,203.571747 330.902557,210.064896 330.939117,216.557266 
	C330.941650,217.005676 331.232025,217.452484 331.444427,218.059875 
	C332.912659,217.975815 334.321625,217.895142 335.964935,217.801041 
	C335.964935,212.796371 335.964935,208.158096 335.964935,202.532867 
M243.177505,278.767365 
	C243.177505,285.720551 243.177505,292.673767 243.177505,300.024536 
	C245.187790,299.931915 246.715866,299.861511 248.437943,299.782196 
	C248.437943,292.538055 248.507584,285.731201 248.421463,278.926331 
	C248.295395,268.966400 241.498520,265.179077 232.714005,270.122375 
	C231.738831,270.671143 230.853424,271.379425 230.735687,271.459991 
	C228.611694,270.202881 227.078537,269.295471 224.833069,267.966492 
	C224.833069,279.424316 224.833069,289.524231 224.833069,300.017365 
	C226.512802,299.939484 228.056290,299.867920 229.841080,299.785156 
	C229.841080,292.750885 229.771683,286.117493 229.868225,279.486511 
	C229.922440,275.764099 233.776276,272.326569 237.842163,272.175232 
	C241.743698,272.029968 243.104233,274.318787 243.177505,278.767365 
M258.839935,211.372131 
	C258.840363,206.717575 258.752899,202.060822 258.868561,197.409134 
	C258.963959,193.571701 263.325470,189.945862 267.416321,190.157898 
	C271.822998,190.386292 272.159332,193.576492 272.173553,196.901642 
	C272.203247,203.849777 272.182526,210.798126 272.182526,217.855133 
	C274.167938,217.855133 275.630585,217.855133 277.438538,217.855133 
	C277.438538,210.892426 277.489502,204.093338 277.426666,197.295288 
	C277.331360,186.989471 270.546875,183.095795 261.597412,188.173828 
	C260.628357,188.723709 259.730072,189.398254 259.789124,189.359146 
	C257.545044,188.134552 255.992233,187.287186 253.676163,186.023300 
	C253.676163,196.714478 253.671265,206.002716 253.684769,215.290924 
	C253.685944,216.098083 253.808502,216.905060 253.903809,218.067566 
	C255.597641,217.949890 257.135803,217.843018 258.839935,217.724625 
	C258.839935,215.628845 258.839935,213.978195 258.839935,211.372131 
M365.083435,191.765518 
	C365.012390,190.181549 364.941376,188.597580 364.860260,186.789291 
	C363.005005,186.901001 361.568237,186.987518 360.013702,187.081116 
	C360.013702,193.705109 360.033966,200.031754 360.007080,206.358200 
	C359.986633,211.169968 356.280029,214.811157 351.539429,214.630081 
	C346.461670,214.436111 346.540771,210.707794 346.533417,207.104752 
	C346.519867,200.487747 346.529572,193.870697 346.529572,187.173340 
	C344.533966,187.173340 342.971222,187.173340 341.310150,187.173340 
	C341.310150,194.833038 341.100067,202.160538 341.368134,209.470505 
	C341.646698,217.066422 346.775391,220.469177 354.033417,218.106873 
	C356.043152,217.452744 357.876678,216.257385 359.183411,215.610962 
	C361.016815,216.647873 362.652985,217.573212 365.083405,218.947754 
	C365.083405,209.320572 365.083405,201.011505 365.083435,191.765518 
M299.690979,191.001236 
	C302.002136,191.552673 304.919617,194.775131 305.927612,189.585556 
	C300.424377,185.986557 294.007050,184.615387 289.037903,187.252258 
	C286.501495,188.598175 284.104919,191.640198 283.271149,194.405807 
	C282.185822,198.005875 284.977112,200.605713 288.348236,201.919708 
	C291.274994,203.060486 294.532501,203.518860 297.229401,205.022278 
	C298.907043,205.957535 300.966461,208.442581 300.752106,209.928879 
	C300.523041,211.517410 297.862854,213.855103 296.192749,213.916000 
	C292.248322,214.059814 288.261749,213.046158 283.241272,212.356155 
	C283.286591,212.300323 282.412201,213.377243 281.465027,214.543762 
	C287.022736,218.962921 292.890350,219.638458 299.179901,217.994659 
	C303.393097,216.893539 306.451019,214.524094 306.769409,209.899536 
	C307.089203,205.254852 304.415222,202.473709 300.286224,200.960480 
	C297.175568,199.820465 293.887299,199.084335 290.928223,197.651703 
	C289.766998,197.089508 288.693420,195.119720 288.693146,193.790710 
	C288.692932,192.802963 290.368317,191.170227 291.506317,190.960968 
	C293.881042,190.524246 296.394043,190.839447 299.690979,191.001236 
M319.173523,283.463257 
	C319.173523,285.125122 319.171631,286.786957 319.173828,288.448822 
	C319.188873,299.725037 325.128204,303.540527 335.906738,298.228119 
	C334.663330,297.138519 333.186523,296.131927 331.773621,296.214813 
	C325.546295,296.580109 324.420105,295.685944 324.388580,289.450531 
	C324.361725,284.132721 324.382477,278.814667 324.382355,273.496735 
	C324.382233,267.765320 324.382324,262.033905 324.382324,256.374542 
	C309.717041,255.476196 309.717041,255.476196 310.468842,260.317261 
	C313.207916,260.317261 315.994568,260.317261 319.173523,260.317261 
	C319.173523,267.890167 319.173523,275.182373 319.173523,283.463257 
M174.615997,218.009201 
	C179.911911,218.009201 185.207825,218.009201 190.783096,218.009201 
	C190.783096,216.683914 190.946136,214.939880 190.758636,214.901337 
	C187.959930,214.326126 185.114899,213.976181 181.943222,213.525116 
	C181.943222,204.764542 181.943222,196.012177 181.943222,187.124405 
	C177.045914,187.124405 172.499298,187.124405 167.370850,187.124405 
	C168.505829,193.883453 174.079620,189.066025 176.699524,191.675003 
	C176.699524,198.766144 176.699524,206.312683 176.699524,213.841751 
	C167.491318,214.279404 167.491318,214.279404 167.765015,218.009201 
	C169.708649,218.009201 171.681122,218.009201 174.615997,218.009201 
M180.400284,173.001160 
	C178.571503,173.315308 176.596680,173.339020 175.010910,174.136444 
	C174.584839,174.350693 174.878189,177.315048 175.702667,178.283951 
	C176.376129,179.075394 179.311386,179.299759 179.544739,178.864532 
	C180.389832,177.288391 180.518814,175.328278 180.400284,173.001160 
z"/>
<path fill="#F1F1F1" opacity="1.000000" stroke="none" 
	d="
M187.226746,259.100281 
	C190.772522,258.605011 192.005600,259.656555 192.063293,263.068451 
	C192.191513,270.649078 192.828476,278.221100 193.211060,284.967957 
	C199.579163,283.219025 205.767410,281.519531 212.356781,279.709839 
	C213.302917,272.774231 209.262817,270.794678 197.501724,273.804352 
	C196.999634,272.765411 196.466049,271.661316 195.441360,269.541016 
	C200.087708,269.039398 204.157364,268.087280 208.170471,268.284698 
	C214.489655,268.595551 217.681702,272.344879 217.881668,278.719727 
	C217.996506,282.380585 217.682388,286.066711 217.987076,289.705811 
	C218.195084,292.190216 219.269821,294.590637 219.693436,297.073608 
	C219.883179,298.185669 219.426880,299.407959 219.146454,301.423248 
	C216.665131,299.802704 214.942474,298.677643 213.033066,297.430603 
	C204.661194,302.360596 200.994705,302.164642 193.306351,295.578186 
	C193.533005,297.239410 193.675659,298.284943 193.878448,299.771210 
	C192.367767,299.851685 190.849945,299.932556 188.958282,300.033325 
	C188.346176,289.632263 187.752609,279.546204 187.159042,269.460175 
	C186.881119,269.407867 186.603195,269.355591 186.325287,269.303284 
	C184.426941,277.000732 182.528595,284.698181 180.579834,292.600098 
	C178.854935,292.600098 177.258087,292.600098 175.365585,292.600098 
	C173.426666,285.232483 171.496155,277.896881 169.565659,270.561310 
	C169.197830,270.564606 168.829987,270.567932 168.462158,270.571259 
	C167.960083,280.176300 167.458008,289.781342 166.938385,299.722137 
	C165.495743,299.850586 164.063995,299.978058 161.976593,300.163910 
	C162.745743,286.511505 163.499252,273.136627 164.271118,259.435791 
	C166.690277,259.435791 168.928421,259.435791 171.613266,259.435791 
	C173.538498,267.486816 175.494476,275.666382 177.450439,283.845947 
	C177.770035,283.943909 178.089615,284.041870 178.409210,284.139832 
	C178.878830,282.600281 179.437286,281.081482 179.802246,279.517517 
	C181.161682,273.691620 182.338181,267.819061 183.877960,262.042572 
	C184.186462,260.885193 185.787521,260.072388 187.226746,259.100281 
M199.410965,293.749023 
	C201.841721,297.769958 205.329361,297.435150 208.888794,295.811890 
	C214.019104,293.472198 213.004929,289.118073 212.399841,284.919403 
	C201.954849,283.853760 198.951859,285.725189 199.410965,293.749023 
z"/>
<path fill="#E5E5E5" opacity="1.000000" stroke="none" 
	d="
M423.995972,228.973083 
	C419.893890,221.549820 419.160858,213.855225 419.525665,205.941605 
	C419.839752,199.128677 420.325348,192.313843 420.335236,185.499268 
	C420.347076,177.361542 416.843628,174.133102 408.637299,174.122986 
	C405.474426,174.119095 402.289581,174.426361 399.158478,174.129791 
	C397.729584,173.994446 396.406769,172.739075 395.035858,171.991699 
	C395.246643,171.451645 395.457428,170.911591 395.668213,170.371536 
	C400.883423,170.371536 406.141998,169.948456 411.302887,170.477905 
	C417.854187,171.150009 421.961212,175.374023 422.893768,181.765106 
	C423.628357,186.799210 423.228302,191.996902 423.361542,197.121185 
	C423.576569,205.389618 422.958466,213.796478 424.270782,221.888885 
	C425.770660,231.137924 431.578278,235.233521 440.808746,236.394791 
	C442.250275,236.576141 443.514679,238.165543 444.564270,239.877487 
	C437.850220,240.509018 432.453949,242.513046 428.462646,247.504105 
	C423.727875,253.424850 422.544708,260.434204 422.655701,267.693878 
	C422.772583,275.341644 423.508392,282.982178 423.553070,290.628326 
	C423.623199,302.640656 418.908997,307.120605 406.855103,307.047150 
	C404.191437,307.030884 401.498901,307.194855 398.876007,306.848938 
	C397.426697,306.657806 396.094208,305.580688 394.709076,304.902985 
	C394.854767,304.331390 395.000458,303.759827 395.146149,303.188263 
	C396.835571,303.050751 398.524078,302.813171 400.214600,302.798187 
	C403.043549,302.773071 405.878723,303.024261 408.702484,302.920593 
	C415.678101,302.664429 419.808411,299.229370 420.019684,292.276001 
	C420.276520,283.823883 419.496826,275.345184 419.354889,266.874847 
	C419.162476,255.394577 421.467438,244.973236 432.187347,238.635895 
	C429.501495,235.522797 426.821747,232.416748 423.995972,228.973083 
z"/>
<path fill="#E5E5E5" opacity="1.000000" stroke="none" 
	d="
M81.067245,301.835297 
	C80.089653,295.674927 78.868332,289.852875 78.636444,283.991730 
	C78.334785,276.367218 79.362076,268.674286 78.839561,261.078064 
	C78.027443,249.271576 71.303421,242.555573 59.998302,240.844086 
	C59.100323,240.708145 58.326244,239.753723 57.494583,239.179688 
	C58.246002,238.208405 59.007782,236.390305 59.747208,236.399338 
	C65.838203,236.473892 70.867523,234.489639 74.449196,229.479889 
	C78.840630,223.337509 79.413681,216.241028 79.144936,209.014511 
	C78.947128,203.695740 78.425217,198.386169 78.329277,193.067429 
	C78.263695,189.431183 78.345009,185.728470 78.955521,182.157166 
	C80.221985,174.748856 85.161774,170.519104 92.744751,170.148071 
	C97.183006,169.930908 101.640572,170.108490 106.089455,170.108490 
	C106.367592,170.603882 106.645737,171.099274 106.923882,171.594666 
	C105.703728,172.472672 104.546478,173.975830 103.251091,174.106186 
	C99.957756,174.437561 96.602455,174.112823 93.272255,174.125931 
	C85.093613,174.158127 81.647484,177.389267 81.653404,185.580460 
	C81.660378,195.213989 82.362350,204.856277 82.115234,214.478134 
	C81.868210,224.096588 77.829437,232.118240 69.346733,238.144745 
	C82.967903,246.744156 83.312851,259.964722 82.296410,273.731476 
	C81.880287,279.367615 81.518478,285.044922 81.727470,290.681396 
	C82.046799,299.293335 86.059013,302.865967 94.691048,302.943573 
	C98.630592,302.978973 102.570717,302.949585 107.960175,302.949585 
	C106.339882,304.951569 105.467216,306.853241 104.743004,306.798340 
	C96.747246,306.191711 87.835533,309.890198 81.067245,301.835297 
z"/>
<path fill="#ECECEC" opacity="1.000000" stroke="none" 
	d="
M195.267227,227.391846 
	C195.266968,213.809738 195.266968,200.663010 195.266968,186.124313 
	C197.597321,187.299820 199.255295,188.136169 201.331131,189.183289 
	C202.789551,188.504120 205.202576,186.861282 207.852432,186.257278 
	C212.956757,185.093796 218.086716,187.706848 219.044281,192.953812 
	C220.085403,198.658752 220.478989,204.915619 219.230530,210.501755 
	C217.411560,218.640671 210.597336,220.533020 200.852295,216.542084 
	C200.852295,220.895264 200.852295,225.108368 200.852295,229.791580 
	C198.548553,229.374924 195.668365,232.891037 195.267227,227.391846 
M213.901077,194.007187 
	C212.185150,190.781509 209.569885,189.432968 206.068436,190.702835 
	C202.546677,191.980057 200.188080,194.219376 200.477615,198.443115 
	C200.669754,201.246216 200.694199,204.087662 200.470551,206.886124 
	C200.131317,211.130646 202.011734,213.529984 206.082108,214.189880 
	C210.291214,214.872253 213.702438,213.224777 214.235214,208.966492 
	C214.816803,204.317993 214.224533,199.522598 213.901077,194.007187 
z"/>
<path fill="#F5F5F5" opacity="1.000000" stroke="none" 
	d="
M163.134415,204.041138 
	C159.843552,216.034637 154.060760,218.938644 136.217407,217.769958 
	C136.217407,204.417984 136.217407,191.042953 136.217407,176.755493 
	C141.686890,177.236023 147.179489,177.176178 152.408768,178.320114 
	C158.469482,179.645950 162.109955,184.183075 162.936737,190.275665 
	C163.531418,194.657898 163.149811,199.172623 163.134415,204.041138 
M151.640182,212.562698 
	C153.664261,209.469177 156.977036,206.572754 157.485550,203.247452 
	C159.505142,190.040939 157.158539,179.413300 141.341339,181.962830 
	C141.341339,192.514420 141.341339,203.086197 141.341339,214.263336 
	C144.768509,213.776917 147.846695,213.340012 151.640182,212.562698 
z"/>
<path fill="#F2F2F2" opacity="1.000000" stroke="none" 
	d="
M266.418335,268.332031 
	C268.449860,269.142365 270.089722,269.854919 272.110321,270.732910 
	C272.110321,265.791138 272.110321,261.054871 272.110321,256.099670 
	C273.882751,256.099670 275.299255,256.099670 277.029846,256.099670 
	C277.029846,270.692139 277.029846,285.094513 277.029846,300.368988 
	C275.128143,299.737244 273.431824,299.173706 270.713318,298.270569 
	C270.604706,298.333862 269.409790,299.168976 268.105743,299.765656 
	C262.713470,302.233124 256.544739,300.381470 254.015533,295.070618 
	C250.691422,288.090729 250.672241,280.825714 254.267319,273.931641 
	C256.653351,269.356079 260.853882,267.551453 266.418335,268.332031 
M260.675354,295.187592 
	C267.513062,298.090393 272.155975,295.168640 272.192139,287.931427 
	C272.206238,285.112823 271.983185,282.274475 272.243561,279.480072 
	C272.631989,275.311493 270.425201,273.240875 266.820404,272.472809 
	C262.895081,271.636505 259.771820,273.288330 258.515900,277.048737 
	C256.514313,283.041779 256.289612,289.073395 260.675354,295.187592 
z"/>
<path fill="#EEEEEE" opacity="1.000000" stroke="none" 
	d="
M303.303650,299.600830 
	C301.560883,297.556702 300.412598,297.084137 298.036163,298.767426 
	C294.147766,301.521698 289.184082,302.168945 285.444092,299.058075 
	C283.136627,297.138702 281.631348,293.380890 281.230560,290.260376 
	C280.707672,286.188629 283.760132,283.340576 287.535309,282.339813 
	C291.494537,281.290253 295.674713,281.074188 299.795258,280.488617 
	C300.322327,273.332794 297.458649,271.334747 288.554474,272.980103 
	C286.102325,273.433228 283.501770,274.579346 283.885040,269.535583 
	C287.338135,269.064667 290.901489,268.155731 294.457855,268.182465 
	C301.665100,268.236542 305.097473,271.855194 305.271637,279.002197 
	C305.373077,283.164246 305.193115,287.334442 305.348541,291.493195 
	C305.407928,293.081818 306.076599,294.642914 306.417053,296.227417 
	C306.656250,297.340546 306.809906,298.472015 307.001770,299.595306 
	C305.861481,299.668060 304.721191,299.740845 303.303650,299.600830 
M286.517975,291.448608 
	C286.902679,296.023834 289.893799,297.589783 293.770538,296.619507 
	C299.471680,295.192688 301.270874,293.333069 299.640320,284.958008 
	C290.629059,284.006500 288.262115,285.025513 286.517975,291.448608 
z"/>
<path fill="#F0F0F0" opacity="1.000000" stroke="none" 
	d="
M231.811386,199.507507 
	C235.198792,199.198303 238.175491,199.004013 241.143494,198.810287 
	C242.410416,190.877396 238.779785,189.104568 226.218964,191.638489 
	C225.816330,190.650742 225.397141,189.622375 224.739456,188.008972 
	C227.691986,187.347824 230.358246,186.464355 233.085526,186.192108 
	C242.449722,185.257339 246.587463,189.308746 247.009949,198.583328 
	C247.271942,204.334824 245.069351,210.437057 248.940811,215.862671 
	C249.250443,216.296616 248.359955,217.586899 247.782455,219.135452 
	C245.634094,217.732590 243.822556,216.549698 241.872208,215.276154 
	C237.397903,218.830170 232.323868,220.277420 226.837616,217.237320 
	C223.218033,215.231567 222.200256,211.750534 222.651520,207.822678 
	C223.245148,202.656036 226.876785,200.642090 231.811386,199.507507 
M230.758072,203.896622 
	C227.500412,206.270126 226.619263,209.807510 229.179810,212.443436 
	C230.749313,214.059158 234.654999,214.580414 237.085968,213.950562 
	C242.941528,212.433380 242.032852,207.529114 241.429153,202.344833 
	C237.961334,202.734818 234.723801,203.098907 230.758072,203.896622 
z"/>
<path fill="#F5F5F5" opacity="1.000000" stroke="none" 
	d="
M335.964935,203.026352 
	C335.964935,208.158096 335.964935,212.796371 335.964935,217.801041 
	C334.321625,217.895142 332.912659,217.975815 331.444427,218.059875 
	C331.232025,217.452484 330.941650,217.005676 330.939117,216.557266 
	C330.902557,210.064896 330.850189,203.571747 330.918365,197.080002 
	C330.957306,193.371201 330.251495,190.322983 325.736877,190.155167 
	C321.695984,190.004944 317.266693,193.765244 317.204010,197.535629 
	C317.093689,204.171051 317.173157,210.809662 317.173157,217.791946 
	C315.537415,217.886185 314.125122,217.967545 312.387390,218.067657 
	C312.387390,203.456619 312.387390,189.072769 312.387390,174.358429 
	C313.852875,174.208496 315.256683,174.064865 317.028381,173.883591 
	C317.028381,179.243011 317.028381,184.333740 317.028381,189.885193 
	C319.481323,188.691483 321.409088,187.477875 323.508453,186.781601 
	C330.769440,184.373489 335.698212,187.893509 335.945160,195.541138 
	C336.020355,197.869507 335.962067,200.202164 335.964935,203.026352 
z"/>
<path fill="#F1F1F1" opacity="1.000000" stroke="none" 
	d="
M243.150055,278.299042 
	C243.104233,274.318787 241.743698,272.029968 237.842163,272.175232 
	C233.776276,272.326569 229.922440,275.764099 229.868225,279.486511 
	C229.771683,286.117493 229.841080,292.750885 229.841080,299.785156 
	C228.056290,299.867920 226.512802,299.939484 224.833069,300.017365 
	C224.833069,289.524231 224.833069,279.424316 224.833069,267.966492 
	C227.078537,269.295471 228.611694,270.202881 230.735687,271.459991 
	C230.853424,271.379425 231.738831,270.671143 232.714005,270.122375 
	C241.498520,265.179077 248.295395,268.966400 248.421463,278.926331 
	C248.507584,285.731201 248.437943,292.538055 248.437943,299.782196 
	C246.715866,299.861511 245.187790,299.931915 243.177505,300.024536 
	C243.177505,292.673767 243.177505,285.720551 243.150055,278.299042 
z"/>
<path fill="#F1F1F1" opacity="1.000000" stroke="none" 
	d="
M258.839935,211.849838 
	C258.839935,213.978195 258.839935,215.628845 258.839935,217.724625 
	C257.135803,217.843018 255.597641,217.949890 253.903809,218.067566 
	C253.808502,216.905060 253.685944,216.098083 253.684769,215.290924 
	C253.671265,206.002716 253.676163,196.714478 253.676163,186.023300 
	C255.992233,187.287186 257.545044,188.134552 259.789124,189.359146 
	C259.730072,189.398254 260.628357,188.723709 261.597412,188.173828 
	C270.546875,183.095795 277.331360,186.989471 277.426666,197.295288 
	C277.489502,204.093338 277.438538,210.892426 277.438538,217.855133 
	C275.630585,217.855133 274.167938,217.855133 272.182526,217.855133 
	C272.182526,210.798126 272.203247,203.849777 272.173553,196.901642 
	C272.159332,193.576492 271.822998,190.386292 267.416321,190.157898 
	C263.325470,189.945862 258.963959,193.571701 258.868561,197.409134 
	C258.752899,202.060822 258.840363,206.717575 258.839935,211.849838 
z"/>
<path fill="#F1F1F1" opacity="1.000000" stroke="none" 
	d="
M365.083435,192.233978 
	C365.083405,201.011505 365.083405,209.320572 365.083405,218.947754 
	C362.652985,217.573212 361.016815,216.647873 359.183411,215.610962 
	C357.876678,216.257385 356.043152,217.452744 354.033417,218.106873 
	C346.775391,220.469177 341.646698,217.066422 341.368134,209.470505 
	C341.100067,202.160538 341.310150,194.833038 341.310150,187.173340 
	C342.971222,187.173340 344.533966,187.173340 346.529572,187.173340 
	C346.529572,193.870697 346.519867,200.487747 346.533417,207.104752 
	C346.540771,210.707794 346.461670,214.436111 351.539429,214.630081 
	C356.280029,214.811157 359.986633,211.169968 360.007080,206.358200 
	C360.033966,200.031754 360.013702,193.705109 360.013702,187.081116 
	C361.568237,186.987518 363.005005,186.901001 364.860260,186.789291 
	C364.941376,188.597580 365.012390,190.181549 365.083435,192.233978 
z"/>
<path fill="#EEEEEE" opacity="1.000000" stroke="none" 
	d="
M299.270599,190.923477 
	C296.394043,190.839447 293.881042,190.524246 291.506317,190.960968 
	C290.368317,191.170227 288.692932,192.802963 288.693146,193.790710 
	C288.693420,195.119720 289.766998,197.089508 290.928223,197.651703 
	C293.887299,199.084335 297.175568,199.820465 300.286224,200.960480 
	C304.415222,202.473709 307.089203,205.254852 306.769409,209.899536 
	C306.451019,214.524094 303.393097,216.893539 299.179901,217.994659 
	C292.890350,219.638458 287.022736,218.962921 281.465027,214.543762 
	C282.412201,213.377243 283.286591,212.300323 283.241272,212.356155 
	C288.261749,213.046158 292.248322,214.059814 296.192749,213.916000 
	C297.862854,213.855103 300.523041,211.517410 300.752106,209.928879 
	C300.966461,208.442581 298.907043,205.957535 297.229401,205.022278 
	C294.532501,203.518860 291.274994,203.060486 288.348236,201.919708 
	C284.977112,200.605713 282.185822,198.005875 283.271149,194.405807 
	C284.104919,191.640198 286.501495,188.598175 289.037903,187.252258 
	C294.007050,184.615387 300.424377,185.986557 305.927612,189.585571 
	C304.919617,194.775131 302.002136,191.552673 299.270599,190.923477 
z"/>
<path fill="#EDEDED" opacity="1.000000" stroke="none" 
	d="
M319.173523,282.968933 
	C319.173523,275.182373 319.173523,267.890167 319.173523,260.317261 
	C315.994568,260.317261 313.207916,260.317261 310.468842,260.317261 
	C309.717041,255.476196 309.717041,255.476196 324.382324,256.374542 
	C324.382324,262.033905 324.382233,267.765320 324.382355,273.496735 
	C324.382477,278.814667 324.361725,284.132721 324.388580,289.450531 
	C324.420105,295.685944 325.546295,296.580109 331.773621,296.214813 
	C333.186523,296.131927 334.663330,297.138519 335.906738,298.228119 
	C325.128204,303.540527 319.188873,299.725037 319.173828,288.448822 
	C319.171631,286.786957 319.173523,285.125122 319.173523,282.968933 
z"/>
<path fill="#FAFAFA" opacity="1.000000" stroke="none" 
	d="
M174.134796,218.009201 
	C171.681122,218.009201 169.708649,218.009201 167.765015,218.009201 
	C167.491318,214.279404 167.491318,214.279404 176.699524,213.841751 
	C176.699524,206.312683 176.699524,198.766144 176.699524,191.675003 
	C174.079620,189.066025 168.505829,193.883453 167.370850,187.124405 
	C172.499298,187.124405 177.045914,187.124405 181.943222,187.124405 
	C181.943222,196.012177 181.943222,204.764542 181.943222,213.525116 
	C185.114899,213.976181 187.959930,214.326126 190.758636,214.901337 
	C190.946136,214.939880 190.783096,216.683914 190.783096,218.009201 
	C185.207825,218.009201 179.911911,218.009201 174.134796,218.009201 
z"/>
<path fill="#E5E5E5" opacity="1.000000" stroke="none" 
	d="
M180.659149,173.257111 
	C180.518814,175.328278 180.389832,177.288391 179.544739,178.864532 
	C179.311386,179.299759 176.376129,179.075394 175.702667,178.283951 
	C174.878189,177.315048 174.584839,174.350693 175.010910,174.136444 
	C176.596680,173.339020 178.571503,173.315308 180.659149,173.257111 
z"/>
<path fill="#0B0B0B" opacity="1.000000" stroke="none" 
	d="
M199.274200,293.373413 
	C198.951859,285.725189 201.954849,283.853760 212.399841,284.919403 
	C213.004929,289.118073 214.019104,293.472198 208.888794,295.811890 
	C205.329361,297.435150 201.841721,297.769958 199.274200,293.373413 
z"/>
<path fill="#0A0A0A" opacity="1.000000" stroke="none" 
	d="
M214.022491,194.399216 
	C214.224533,199.522598 214.816803,204.317993 214.235214,208.966492 
	C213.702438,213.224777 210.291214,214.872253 206.082108,214.189880 
	C202.011734,213.529984 200.131317,211.130646 200.470551,206.886124 
	C200.694199,204.087662 200.669754,201.246216 200.477615,198.443115 
	C200.188080,194.219376 202.546677,191.980057 206.068436,190.702835 
	C209.569885,189.432968 212.185150,190.781509 214.022491,194.399216 
z"/>
<path fill="#040404" opacity="1.000000" stroke="none" 
	d="
M151.282532,212.732910 
	C147.846695,213.340012 144.768509,213.776917 141.341339,214.263336 
	C141.341339,203.086197 141.341339,192.514420 141.341339,181.962830 
	C157.158539,179.413300 159.505142,190.040939 157.485550,203.247452 
	C156.977036,206.572754 153.664261,209.469177 151.282532,212.732910 
z"/>
<path fill="#070707" opacity="1.000000" stroke="none" 
	d="
M260.360596,294.923096 
	C256.289612,289.073395 256.514313,283.041779 258.515900,277.048737 
	C259.771820,273.288330 262.895081,271.636505 266.820404,272.472809 
	C270.425201,273.240875 272.631989,275.311493 272.243561,279.480072 
	C271.983185,282.274475 272.206238,285.112823 272.192139,287.931427 
	C272.155975,295.168640 267.513062,298.090393 260.360596,294.923096 
z"/>
<path fill="#070707" opacity="1.000000" stroke="none" 
	d="
M286.520142,291.027039 
	C288.262115,285.025513 290.629059,284.006500 299.640320,284.958008 
	C301.270874,293.333069 299.471680,295.192688 293.770538,296.619507 
	C289.893799,297.589783 286.902679,296.023834 286.520142,291.027039 
z"/>
<path fill="#0B0B0B" opacity="1.000000" stroke="none" 
	d="
M231.122162,203.679810 
	C234.723801,203.098907 237.961334,202.734818 241.429153,202.344833 
	C242.032852,207.529114 242.941528,212.433380 237.085968,213.950562 
	C234.654999,214.580414 230.749313,214.059158 229.179810,212.443436 
	C226.619263,209.807510 227.500412,206.270126 231.122162,203.679810 
z"/>
</svg>